<svg xmlns="http://www.w3.org/2000/svg" xmlns:xlink="http://www.w3.org/1999/xlink" width="500" zoomAndPan="magnify" viewBox="0 0 375 374.999991" height="500" preserveAspectRatio="xMidYMid meet" version="1.0"><defs><g/><clipPath id="b9a479281f"><path d="M 81.171875 97 L 249 97 L 249 229.863281 L 81.171875 229.863281 Z M 81.171875 97 " clip-rule="nonzero"/></clipPath><clipPath id="622bcca532"><path d="M 193 70.113281 L 303.171875 70.113281 L 303.171875 143 L 193 143 Z M 193 70.113281 " clip-rule="nonzero"/></clipPath></defs><path fill="#00fffc" d="M 194.839844 137.601562 L 193.507812 115.238281 L 201.164062 109.027344 L 197.742188 126.28125 L 194.949219 138.097656 " fill-opacity="1" fill-rule="nonzero"/><g clip-path="url(#b9a479281f)"><path fill="#ffffff" d="M 236.859375 195.089844 C 236.886719 195.394531 236.847656 195.691406 236.753906 195.980469 C 236.65625 196.273438 236.507812 196.53125 236.304688 196.761719 C 236.101562 196.988281 235.863281 197.167969 235.585938 197.300781 C 235.308594 197.433594 235.019531 197.503906 234.710938 197.515625 C 189.234375 197.515625 143.773438 197.515625 98.296875 197.613281 C 93.550781 197.613281 92.570312 195.515625 92.582031 191.316406 C 92.703125 166.054688 92.8125 140.792969 92.582031 115.53125 C 92.507812 109.523438 94.558594 108.007812 100.273438 108.054688 C 128.773438 108.296875 157.300781 108.1875 185.765625 108.117188 C 187.648438 108.117188 190.109375 107.972656 191.296875 106.84375 C 194.183594 103.835938 196.871094 100.660156 199.355469 97.316406 C 198.324219 97.234375 197.378906 97.097656 196.417969 97.097656 C 162.445312 97.097656 128.492188 97.097656 94.558594 97.097656 C 85.945312 97.097656 81.34375 101.953125 81.320312 110.835938 C 81.238281 138.492188 81.199219 166.171875 81.199219 193.875 C 81.203125 194.84375 81.296875 195.800781 81.488281 196.75 C 81.679688 197.699219 81.960938 198.621094 82.332031 199.515625 C 82.703125 200.410156 83.160156 201.257812 83.699219 202.0625 C 84.234375 202.867188 84.847656 203.613281 85.53125 204.296875 C 86.214844 204.984375 86.960938 205.59375 87.765625 206.132812 C 88.570312 206.671875 89.417969 207.125 90.3125 207.496094 C 91.207031 207.867188 92.128906 208.148438 93.078125 208.339844 C 94.027344 208.53125 94.984375 208.628906 95.953125 208.628906 C 110.515625 208.628906 125.074219 208.628906 139.632812 208.628906 L 150.082031 208.628906 C 150.082031 212.550781 150.082031 215.570312 150.082031 218.578125 C 150.082031 219.550781 149.839844 220.507812 149.632812 222.132812 C 142.933594 222.132812 136.878906 222.132812 130.824219 222.132812 C 128.058594 222.132812 124.90625 221.480469 125 226.054688 C 125.085938 230.359375 128.167969 229.464844 130.605469 229.464844 C 153.441406 229.511719 176.28125 229.511719 199.125 229.464844 C 201.832031 229.464844 205.191406 230.238281 205.035156 225.640625 C 204.875 221.042969 201.394531 222.195312 198.808594 222.132812 C 192.644531 222.027344 186.46875 222.132812 180.328125 222.132812 L 180.328125 208.628906 L 187.269531 208.628906 C 203.238281 208.628906 219.207031 208.714844 235.171875 208.628906 C 244.320312 208.628906 248.824219 203.875 248.957031 194.664062 C 248.957031 192.710938 248.957031 190.757812 248.957031 188.414062 C 248.957031 188.171875 248.90625 187.941406 248.796875 187.726562 C 248.6875 187.507812 248.535156 187.328125 248.339844 187.183594 C 248.144531 187.039062 247.925781 186.949219 247.6875 186.90625 C 247.445312 186.867188 247.210938 186.886719 246.980469 186.960938 C 241.894531 188.550781 236.507812 188.730469 236.859375 195.089844 Z M 236.859375 195.089844 " fill-opacity="1" fill-rule="nonzero"/></g><g clip-path="url(#622bcca532)"><path fill="#00fffc" d="M 300.972656 83.304688 C 300.578125 82.625 300.136719 81.984375 299.640625 81.375 C 299.144531 80.769531 298.605469 80.207031 298.019531 79.683594 C 297.4375 79.164062 296.816406 78.691406 296.15625 78.265625 C 295.496094 77.84375 294.808594 77.476562 294.089844 77.160156 C 293.371094 76.847656 292.632812 76.59375 291.875 76.394531 C 291.117188 76.199219 290.347656 76.0625 289.570312 75.988281 C 288.789062 75.914062 288.007812 75.898438 287.226562 75.949219 C 286.445312 75.996094 285.671875 76.105469 284.910156 76.277344 C 284.117188 76.445312 283.347656 76.679688 282.597656 76.976562 C 281.84375 77.273438 281.125 77.628906 280.429688 78.046875 C 279.738281 78.464844 279.085938 78.933594 278.472656 79.460938 C 277.859375 79.984375 277.292969 80.558594 276.777344 81.179688 C 276.257812 81.796875 275.792969 82.457031 275.386719 83.152344 C 274.976562 83.851562 274.628906 84.574219 274.339844 85.332031 C 274.054688 86.085938 273.832031 86.859375 273.671875 87.652344 C 273.511719 88.441406 273.417969 89.242188 273.394531 90.050781 C 273.308594 93.542969 271.683594 94.902344 269.011719 96.347656 C 259.902344 101.199219 250.921875 106.210938 241.859375 111.089844 C 231.011719 116.9375 220.128906 122.699219 209.257812 128.488281 C 206.429688 129.992188 203.90625 130.914062 203.1875 126.28125 C 201.25 114.339844 202.8125 110.882812 213.152344 104.9375 C 216.792969 102.828125 220.601562 100.859375 224.144531 98.554688 C 227.394531 96.433594 229.859375 95.582031 233.851562 98.128906 C 241.238281 102.898438 250.957031 99.078125 254.476562 90.851562 C 254.675781 90.386719 254.847656 89.910156 254.996094 89.425781 C 255.144531 88.945312 255.269531 88.453125 255.371094 87.957031 C 255.46875 87.464844 255.542969 86.964844 255.589844 86.460938 C 255.636719 85.957031 255.660156 85.453125 255.65625 84.945312 C 255.652344 84.441406 255.625 83.9375 255.570312 83.433594 C 255.515625 82.929688 255.433594 82.433594 255.328125 81.9375 C 255.222656 81.445312 255.089844 80.957031 254.9375 80.476562 C 254.78125 79.992188 254.601562 79.523438 254.398438 79.058594 C 254.191406 78.597656 253.964844 78.144531 253.714844 77.703125 C 253.464844 77.265625 253.195312 76.839844 252.902344 76.425781 C 252.609375 76.015625 252.296875 75.621094 251.960938 75.238281 C 251.628906 74.859375 251.277344 74.496094 250.90625 74.152344 C 250.535156 73.808594 250.148438 73.484375 249.742188 73.179688 C 249.339844 72.875 248.921875 72.59375 248.488281 72.332031 C 248.054688 72.070312 247.609375 71.832031 247.152344 71.613281 C 246.695312 71.398438 246.230469 71.207031 245.753906 71.035156 C 237.371094 68.039062 227.226562 72.589844 226.339844 81.109375 C 225.648438 87.890625 221.921875 90.339844 216.960938 92.78125 C 214.425781 93.992188 212.109375 95.789062 209.546875 96.90625 C 201.492188 100.375 195.59375 105.046875 193.929688 112.144531 C 193.164062 115.886719 193.328125 119.589844 194.429688 123.246094 C 194.429688 126.679688 194.429688 130.113281 194.429688 133.546875 C 194.390625 135.433594 194.664062 137.269531 195.253906 139.058594 C 196.710938 142.953125 200.191406 143.292969 205.882812 140.269531 C 228.097656 128.28125 250.351562 116.367188 272.484375 104.222656 C 275.664062 102.472656 277.992188 102.328125 281.257812 104.136719 C 281.960938 104.542969 282.691406 104.886719 283.453125 105.164062 C 284.214844 105.445312 284.996094 105.65625 285.792969 105.804688 C 286.59375 105.949219 287.398438 106.027344 288.210938 106.03125 C 289.019531 106.039062 289.828125 105.976562 290.628906 105.84375 C 291.429688 105.714844 292.210938 105.515625 292.980469 105.25 C 293.746094 104.980469 294.484375 104.652344 295.195312 104.257812 C 295.902344 103.863281 296.574219 103.414062 297.207031 102.902344 C 297.839844 102.394531 298.421875 101.835938 298.957031 101.226562 C 299.53125 100.648438 300.050781 100.027344 300.515625 99.363281 C 300.984375 98.699219 301.390625 98 301.742188 97.265625 C 302.09375 96.53125 302.378906 95.777344 302.601562 94.996094 C 302.828125 94.214844 302.984375 93.421875 303.074219 92.613281 C 303.164062 91.804688 303.1875 90.996094 303.144531 90.1875 C 303.097656 89.375 302.988281 88.574219 302.808594 87.78125 C 302.628906 86.988281 302.386719 86.21875 302.078125 85.464844 C 301.769531 84.714844 301.402344 83.992188 300.972656 83.304688 Z M 240.535156 77.394531 C 241.046875 77.394531 241.550781 77.445312 242.050781 77.542969 C 242.550781 77.644531 243.035156 77.789062 243.507812 77.984375 C 243.980469 78.179688 244.425781 78.421875 244.851562 78.703125 C 245.273438 78.988281 245.667969 79.308594 246.027344 79.667969 C 246.386719 80.03125 246.710938 80.421875 246.992188 80.847656 C 247.277344 81.269531 247.515625 81.71875 247.710938 82.1875 C 247.90625 82.660156 248.054688 83.144531 248.152344 83.644531 C 248.25 84.144531 248.300781 84.648438 248.300781 85.160156 C 248.300781 85.671875 248.25 86.175781 248.152344 86.675781 C 248.054688 87.175781 247.90625 87.660156 247.710938 88.132812 C 247.515625 88.601562 247.277344 89.050781 246.992188 89.472656 C 246.710938 89.898438 246.386719 90.289062 246.027344 90.652344 C 245.667969 91.011719 245.273438 91.332031 244.851562 91.617188 C 244.425781 91.898438 243.980469 92.140625 243.507812 92.335938 C 243.035156 92.53125 242.550781 92.675781 242.050781 92.777344 C 241.550781 92.875 241.046875 92.925781 240.535156 92.925781 C 240.027344 92.925781 239.519531 92.875 239.019531 92.777344 C 238.519531 92.675781 238.035156 92.53125 237.566406 92.335938 C 237.09375 92.140625 236.644531 91.898438 236.222656 91.617188 C 235.796875 91.332031 235.40625 91.011719 235.046875 90.652344 C 234.683594 90.289062 234.363281 89.898438 234.078125 89.472656 C 233.796875 89.050781 233.558594 88.601562 233.363281 88.132812 C 233.167969 87.660156 233.019531 87.175781 232.921875 86.675781 C 232.820312 86.175781 232.769531 85.671875 232.769531 85.160156 C 232.769531 84.648438 232.820312 84.144531 232.921875 83.644531 C 233.019531 83.144531 233.167969 82.660156 233.363281 82.1875 C 233.558594 81.71875 233.796875 81.269531 234.078125 80.847656 C 234.363281 80.421875 234.683594 80.03125 235.046875 79.667969 C 235.40625 79.308594 235.796875 78.988281 236.222656 78.703125 C 236.644531 78.421875 237.09375 78.179688 237.566406 77.984375 C 238.035156 77.789062 238.519531 77.644531 239.019531 77.542969 C 239.519531 77.445312 240.027344 77.394531 240.535156 77.394531 Z M 288.160156 98.144531 C 287.648438 98.144531 287.144531 98.09375 286.644531 97.992188 C 286.144531 97.894531 285.660156 97.746094 285.1875 97.550781 C 284.71875 97.355469 284.269531 97.117188 283.847656 96.835938 C 283.421875 96.550781 283.03125 96.230469 282.667969 95.867188 C 282.308594 95.507812 281.988281 95.117188 281.703125 94.691406 C 281.421875 94.269531 281.179688 93.820312 280.984375 93.347656 C 280.789062 92.878906 280.644531 92.390625 280.542969 91.890625 C 280.445312 91.390625 280.394531 90.886719 280.394531 90.378906 C 280.394531 89.867188 280.445312 89.363281 280.542969 88.863281 C 280.644531 88.363281 280.789062 87.875 280.984375 87.40625 C 281.179688 86.933594 281.421875 86.488281 281.703125 86.0625 C 281.988281 85.640625 282.308594 85.246094 282.667969 84.886719 C 283.03125 84.527344 283.421875 84.203125 283.847656 83.921875 C 284.269531 83.636719 284.71875 83.398438 285.1875 83.203125 C 285.660156 83.007812 286.144531 82.859375 286.644531 82.761719 C 287.144531 82.660156 287.648438 82.613281 288.160156 82.613281 C 288.667969 82.613281 289.175781 82.660156 289.675781 82.761719 C 290.175781 82.859375 290.660156 83.007812 291.132812 83.203125 C 291.601562 83.398438 292.050781 83.636719 292.472656 83.921875 C 292.898438 84.203125 293.289062 84.527344 293.652344 84.886719 C 294.011719 85.246094 294.332031 85.640625 294.617188 86.0625 C 294.898438 86.488281 295.140625 86.933594 295.335938 87.40625 C 295.53125 87.875 295.675781 88.363281 295.777344 88.863281 C 295.875 89.363281 295.925781 89.867188 295.925781 90.378906 C 295.925781 90.886719 295.875 91.390625 295.777344 91.890625 C 295.675781 92.390625 295.53125 92.878906 295.335938 93.347656 C 295.140625 93.820312 294.898438 94.269531 294.617188 94.691406 C 294.332031 95.117188 294.011719 95.507812 293.652344 95.867188 C 293.289062 96.230469 292.898438 96.550781 292.472656 96.835938 C 292.050781 97.117188 291.601562 97.355469 291.132812 97.550781 C 290.660156 97.746094 290.175781 97.894531 289.675781 97.992188 C 289.175781 98.09375 288.671875 98.144531 288.160156 98.144531 Z M 288.160156 98.144531 " fill-opacity="1" fill-rule="nonzero"/></g><path fill="#5cb6f9" d="M 295.34375 125.042969 C 295.046875 124.289062 294.691406 123.566406 294.28125 122.871094 C 293.871094 122.171875 293.40625 121.511719 292.894531 120.886719 C 292.378906 120.265625 291.820312 119.683594 291.214844 119.148438 C 290.609375 118.609375 289.964844 118.125 289.285156 117.6875 C 288.601562 117.253906 287.890625 116.875 287.152344 116.550781 C 286.410156 116.226562 285.648438 115.960938 284.867188 115.753906 C 284.082031 115.550781 283.289062 115.40625 282.484375 115.328125 C 281.679688 115.246094 280.875 115.230469 280.066406 115.273438 C 279.230469 115.324219 278.402344 115.441406 277.589844 115.632812 C 276.773438 115.824219 275.980469 116.085938 275.207031 116.410156 C 274.4375 116.738281 273.699219 117.132812 272.996094 117.585938 C 272.292969 118.042969 271.632812 118.554688 271.015625 119.121094 C 270.402344 119.691406 269.839844 120.308594 269.332031 120.976562 C 268.824219 121.640625 268.375 122.347656 267.988281 123.089844 C 267.601562 123.832031 267.28125 124.605469 267.027344 125.402344 C 266.773438 126.199219 266.589844 127.015625 266.476562 127.84375 C 265.929688 131.691406 264.160156 133.292969 261.015625 134.808594 C 245.542969 142.234375 230.125 149.789062 214.765625 157.476562 C 208.699219 160.519531 208.25 164.183594 213.550781 168.394531 C 219.738281 173.25 226.253906 177.738281 232.335938 182.738281 C 236.144531 185.878906 239.746094 186.378906 243.957031 183.949219 C 247.453125 181.960938 250.605469 181.453125 254.625 183.792969 C 257.230469 185.308594 261.34375 185.359375 264.464844 184.640625 C 265.375 184.417969 266.253906 184.113281 267.105469 183.722656 C 267.957031 183.328125 268.761719 182.859375 269.523438 182.316406 C 270.285156 181.769531 270.988281 181.15625 271.632812 180.476562 C 272.277344 179.796875 272.851562 179.0625 273.355469 178.273438 C 273.859375 177.480469 274.285156 176.652344 274.628906 175.78125 C 274.976562 174.910156 275.234375 174.011719 275.40625 173.09375 C 275.582031 172.171875 275.667969 171.242188 275.660156 170.304688 C 275.65625 169.371094 275.566406 168.441406 275.382812 167.523438 C 275.210938 166.628906 274.957031 165.761719 274.628906 164.914062 C 274.296875 164.066406 273.890625 163.257812 273.414062 162.484375 C 272.9375 161.710938 272.394531 160.988281 271.785156 160.316406 C 271.175781 159.640625 270.511719 159.027344 269.792969 158.472656 C 269.070312 157.917969 268.308594 157.433594 267.5 157.015625 C 266.691406 156.601562 265.851562 156.261719 264.984375 156 C 264.113281 155.734375 263.226562 155.554688 262.324219 155.449219 C 261.421875 155.347656 260.515625 155.328125 259.609375 155.386719 C 251.785156 155.824219 246.167969 161.648438 245.4375 170.070312 C 244.964844 175.566406 240.488281 177.8125 236.070312 174.621094 C 231.65625 171.429688 227.105469 167.863281 221.679688 163.699219 C 237.5625 155.863281 252.355469 148.472656 267.277344 141.375 C 268.492188 140.78125 270.980469 141.824219 272.496094 142.722656 C 278.660156 146.359375 285.441406 146.253906 290.585938 142.003906 C 291.207031 141.519531 291.785156 140.988281 292.320312 140.414062 C 292.855469 139.835938 293.34375 139.222656 293.78125 138.566406 C 294.21875 137.914062 294.601562 137.226562 294.933594 136.511719 C 295.261719 135.796875 295.535156 135.0625 295.746094 134.304688 C 295.957031 133.546875 296.109375 132.777344 296.199219 131.992188 C 296.289062 131.210938 296.320312 130.425781 296.285156 129.640625 C 296.25 128.855469 296.152344 128.074219 295.996094 127.304688 C 295.839844 126.535156 295.621094 125.78125 295.34375 125.042969 Z M 260.859375 163.070312 C 261.371094 163.066406 261.878906 163.117188 262.378906 163.214844 C 262.878906 163.316406 263.367188 163.460938 263.839844 163.65625 C 264.3125 163.851562 264.761719 164.089844 265.183594 164.375 C 265.609375 164.65625 266.003906 164.980469 266.367188 165.339844 C 266.726562 165.703125 267.050781 166.09375 267.335938 166.519531 C 267.617188 166.945312 267.859375 167.394531 268.054688 167.863281 C 268.25 168.335938 268.398438 168.824219 268.5 169.324219 C 268.597656 169.824219 268.648438 170.332031 268.648438 170.84375 C 268.648438 171.351562 268.601562 171.859375 268.5 172.359375 C 268.402344 172.863281 268.253906 173.347656 268.058594 173.820312 C 267.863281 174.292969 267.625 174.742188 267.339844 175.167969 C 267.054688 175.589844 266.734375 175.984375 266.371094 176.347656 C 266.011719 176.707031 265.617188 177.03125 265.191406 177.3125 C 264.765625 177.597656 264.320312 177.835938 263.847656 178.03125 C 263.375 178.226562 262.886719 178.375 262.386719 178.476562 C 261.886719 178.574219 261.378906 178.625 260.867188 178.625 C 260.355469 178.625 259.851562 178.574219 259.351562 178.472656 C 258.847656 178.375 258.363281 178.226562 257.890625 178.03125 C 257.417969 177.832031 256.96875 177.59375 256.546875 177.308594 C 256.121094 177.023438 255.726562 176.703125 255.367188 176.339844 C 255.003906 175.980469 254.683594 175.585938 254.398438 175.160156 C 254.117188 174.734375 253.878906 174.285156 253.683594 173.8125 C 253.488281 173.339844 253.339844 172.855469 253.242188 172.351562 C 253.144531 171.851562 253.09375 171.34375 253.09375 170.835938 C 253.09375 170.324219 253.144531 169.820312 253.246094 169.320312 C 253.34375 168.820312 253.492188 168.335938 253.6875 167.863281 C 253.882812 167.394531 254.125 166.945312 254.40625 166.523438 C 254.691406 166.097656 255.011719 165.707031 255.371094 165.347656 C 255.734375 164.988281 256.125 164.664062 256.546875 164.382812 C 256.972656 164.097656 257.417969 163.859375 257.890625 163.664062 C 258.359375 163.46875 258.847656 163.320312 259.34375 163.21875 C 259.84375 163.121094 260.351562 163.070312 260.859375 163.070312 Z M 281.488281 137.515625 C 280.976562 137.515625 280.472656 137.464844 279.972656 137.367188 C 279.472656 137.265625 278.984375 137.121094 278.515625 136.925781 C 278.042969 136.730469 277.597656 136.492188 277.171875 136.207031 C 276.75 135.925781 276.355469 135.601562 275.996094 135.242188 C 275.636719 134.882812 275.3125 134.488281 275.03125 134.066406 C 274.746094 133.640625 274.507812 133.191406 274.3125 132.722656 C 274.117188 132.25 273.96875 131.765625 273.871094 131.265625 C 273.769531 130.765625 273.722656 130.261719 273.722656 129.75 C 273.722656 129.242188 273.769531 128.734375 273.871094 128.234375 C 273.96875 127.734375 274.117188 127.25 274.3125 126.777344 C 274.507812 126.308594 274.746094 125.859375 275.03125 125.4375 C 275.3125 125.011719 275.636719 124.621094 275.996094 124.257812 C 276.355469 123.898438 276.75 123.578125 277.171875 123.292969 C 277.597656 123.011719 278.042969 122.769531 278.515625 122.578125 C 278.984375 122.382812 279.472656 122.234375 279.972656 122.132812 C 280.472656 122.035156 280.976562 121.984375 281.488281 121.984375 C 281.996094 121.984375 282.5 122.035156 283 122.132812 C 283.5 122.234375 283.988281 122.382812 284.457031 122.578125 C 284.929688 122.769531 285.375 123.011719 285.800781 123.292969 C 286.226562 123.578125 286.617188 123.898438 286.976562 124.257812 C 287.339844 124.621094 287.660156 125.011719 287.941406 125.4375 C 288.226562 125.859375 288.464844 126.308594 288.660156 126.777344 C 288.855469 127.25 289.003906 127.734375 289.101562 128.234375 C 289.203125 128.734375 289.253906 129.242188 289.253906 129.75 C 289.25 130.265625 289.199219 130.773438 289.097656 131.273438 C 288.996094 131.777344 288.847656 132.265625 288.648438 132.738281 C 288.453125 133.214844 288.210938 133.664062 287.921875 134.089844 C 287.636719 134.515625 287.308594 134.90625 286.945312 135.269531 C 286.578125 135.628906 286.183594 135.949219 285.753906 136.234375 C 285.324219 136.515625 284.875 136.753906 284.398438 136.945312 C 283.921875 137.140625 283.433594 137.285156 282.929688 137.378906 C 282.421875 137.476562 281.914062 137.519531 281.402344 137.515625 Z M 281.488281 137.515625 " fill-opacity="1" fill-rule="nonzero"/><g fill="#00fefb" fill-opacity="1"><g transform="translate(78.298475, 268.1695)"><g><path d="M 19.921875 0 L 16.5625 0 L 16.5625 -8.265625 L 5.984375 -8.265625 L 5.984375 0 L 2.625 0 L 2.625 -19.953125 L 5.984375 -19.953125 L 5.984375 -11.28125 L 16.5625 -11.28125 L 16.5625 -19.953125 L 19.921875 -19.953125 Z M 19.921875 0 "/></g></g></g><g fill="#00fefb" fill-opacity="1"><g transform="translate(100.842041, 268.1695)"><g><path d="M 16.875 -16.921875 L 5.984375 -16.921875 L 5.984375 -11.546875 L 15.734375 -11.546875 L 15.734375 -8.515625 L 5.984375 -8.515625 L 5.984375 -3.015625 L 17.21875 -3.015625 L 17.21875 0 L 2.625 0 L 2.625 -19.953125 L 16.875 -19.953125 Z M 16.875 -16.921875 "/></g></g></g><g fill="#00fefb" fill-opacity="1"><g transform="translate(119.538093, 268.1695)"><g><path d="M 19.921875 0 L 16.609375 0 L 5.984375 -14.3125 L 5.984375 0 L 2.625 0 L 2.625 -19.953125 L 5.921875 -19.953125 L 16.609375 -5.609375 L 16.609375 -19.953125 L 19.921875 -19.953125 Z M 19.921875 0 "/></g></g></g><g fill="#00fefb" fill-opacity="1"><g transform="translate(142.110155, 268.1695)"><g><path d="M 15.28125 0 L 11.625 -6.046875 C 11.4375 -6.023438 11.132812 -6.015625 10.71875 -6.015625 L 5.984375 -6.015625 L 5.984375 0 L 2.625 0 L 2.625 -19.953125 L 10.71875 -19.953125 C 13.257812 -19.953125 15.234375 -19.359375 16.640625 -18.171875 C 18.046875 -16.984375 18.75 -15.304688 18.75 -13.140625 C 18.75 -11.546875 18.390625 -10.195312 17.671875 -9.09375 C 16.960938 -7.988281 15.945312 -7.179688 14.625 -6.671875 L 19.09375 0 Z M 5.984375 -9.03125 L 10.71875 -9.03125 C 13.945312 -9.03125 15.5625 -10.367188 15.5625 -13.046875 C 15.5625 -15.628906 13.945312 -16.921875 10.71875 -16.921875 L 5.984375 -16.921875 Z M 5.984375 -9.03125 "/></g></g></g><g fill="#00fefb" fill-opacity="1"><g transform="translate(162.71571, 268.1695)"><g><path d="M 5.984375 0 L 2.625 0 L 2.625 -19.953125 L 5.984375 -19.953125 Z M 5.984375 0 "/></g></g></g><g fill="#00fefb" fill-opacity="1"><g transform="translate(171.32273, 268.1695)"><g><path d="M 11.453125 -20.03125 C 12.859375 -20.03125 14.226562 -19.757812 15.5625 -19.21875 C 16.90625 -18.675781 18.0625 -17.921875 19.03125 -16.953125 L 17.078125 -14.5 C 16.347656 -15.28125 15.488281 -15.898438 14.5 -16.359375 C 13.519531 -16.816406 12.523438 -17.046875 11.515625 -17.046875 C 9.515625 -17.046875 7.828125 -16.363281 6.453125 -15 C 5.078125 -13.644531 4.390625 -11.988281 4.390625 -10.03125 C 4.390625 -8.050781 5.078125 -6.382812 6.453125 -5.03125 C 7.828125 -3.675781 9.515625 -3 11.515625 -3 C 13.585938 -3 15.441406 -3.785156 17.078125 -5.359375 L 19.0625 -3.140625 C 18.039062 -2.128906 16.84375 -1.328125 15.46875 -0.734375 C 14.101562 -0.148438 12.726562 0.140625 11.34375 0.140625 C 8.414062 0.140625 5.953125 -0.832031 3.953125 -2.78125 C 1.960938 -4.726562 0.96875 -7.132812 0.96875 -10 C 0.96875 -12.832031 1.976562 -15.210938 4 -17.140625 C 6.03125 -19.066406 8.515625 -20.03125 11.453125 -20.03125 Z M 11.453125 -20.03125 "/></g></g></g><g fill="#00fefb" fill-opacity="1"><g transform="translate(191.187281, 268.1695)"><g><path d="M 4.015625 -17.140625 C 6.046875 -19.066406 8.550781 -20.03125 11.53125 -20.03125 C 14.519531 -20.03125 17.03125 -19.066406 19.0625 -17.140625 C 21.09375 -15.210938 22.109375 -12.820312 22.109375 -9.96875 C 22.109375 -7.125 21.09375 -4.726562 19.0625 -2.78125 C 17.03125 -0.832031 14.519531 0.140625 11.53125 0.140625 C 8.550781 0.140625 6.046875 -0.832031 4.015625 -2.78125 C 1.984375 -4.726562 0.96875 -7.125 0.96875 -9.96875 C 0.96875 -12.820312 1.984375 -15.210938 4.015625 -17.140625 Z M 11.578125 -17.015625 C 9.597656 -17.015625 7.90625 -16.332031 6.5 -14.96875 C 5.09375 -13.613281 4.390625 -11.945312 4.390625 -9.96875 C 4.390625 -8 5.097656 -6.320312 6.515625 -4.9375 C 7.929688 -3.5625 9.613281 -2.875 11.5625 -2.875 C 13.519531 -2.875 15.191406 -3.5625 16.578125 -4.9375 C 17.972656 -6.320312 18.671875 -8 18.671875 -9.96875 C 18.671875 -11.945312 17.972656 -13.613281 16.578125 -14.96875 C 15.191406 -16.332031 13.523438 -17.015625 11.578125 -17.015625 Z M 11.578125 -17.015625 "/></g></g></g><g fill="#00fefb" fill-opacity="1"><g transform="translate(214.272347, 268.1695)"><g/></g></g><g fill="#00fefb" fill-opacity="1"><g transform="translate(221.62537, 268.1695)"><g><path d="M 2.625 -19.953125 L 11.28125 -19.953125 C 13.351562 -19.953125 14.988281 -19.507812 16.1875 -18.625 C 17.382812 -17.738281 17.984375 -16.519531 17.984375 -14.96875 C 17.984375 -13.84375 17.671875 -12.882812 17.046875 -12.09375 C 16.421875 -11.3125 15.566406 -10.785156 14.484375 -10.515625 C 15.804688 -10.285156 16.847656 -9.722656 17.609375 -8.828125 C 18.367188 -7.941406 18.75 -6.820312 18.75 -5.46875 C 18.75 -3.757812 18.101562 -2.421875 16.8125 -1.453125 C 15.519531 -0.484375 13.742188 0 11.484375 0 L 2.625 0 Z M 5.984375 -16.953125 L 5.984375 -11.6875 L 11.109375 -11.6875 C 12.179688 -11.6875 13.019531 -11.921875 13.625 -12.390625 C 14.226562 -12.867188 14.53125 -13.523438 14.53125 -14.359375 C 14.53125 -15.203125 14.226562 -15.84375 13.625 -16.28125 C 13.03125 -16.726562 12.191406 -16.953125 11.109375 -16.953125 Z M 5.984375 -8.71875 L 5.984375 -3 L 11.109375 -3 C 12.441406 -3 13.472656 -3.25 14.203125 -3.75 C 14.929688 -4.25 15.296875 -4.96875 15.296875 -5.90625 C 15.296875 -6.769531 14.925781 -7.453125 14.1875 -7.953125 C 13.445312 -8.460938 12.421875 -8.71875 11.109375 -8.71875 Z M 5.984375 -8.71875 "/></g></g></g><g fill="#00fefb" fill-opacity="1"><g transform="translate(241.746428, 268.1695)"><g><path d="M 16.875 -16.921875 L 5.984375 -16.921875 L 5.984375 -11.546875 L 15.734375 -11.546875 L 15.734375 -8.515625 L 5.984375 -8.515625 L 5.984375 -3.015625 L 17.21875 -3.015625 L 17.21875 0 L 2.625 0 L 2.625 -19.953125 L 16.875 -19.953125 Z M 16.875 -16.921875 "/></g></g></g><g fill="#00fefb" fill-opacity="1"><g transform="translate(260.442479, 268.1695)"><g><path d="M 5.984375 -3.046875 L 14.625 -3.046875 L 14.625 0 L 2.625 0 L 2.625 -19.953125 L 5.984375 -19.953125 Z M 5.984375 -3.046875 "/></g></g></g><g fill="#00fefb" fill-opacity="1"><g transform="translate(275.661529, 268.1695)"><g><path d="M 15.5 -4.5 L 5.4375 -4.5 L 3.53125 0 L 0.03125 0 L 8.828125 -19.953125 L 12.28125 -19.953125 L 21 0 L 17.40625 0 Z M 14.21875 -7.5 L 10.453125 -16.359375 L 6.703125 -7.5 Z M 14.21875 -7.5 "/></g></g></g><g fill="#ffffff" fill-opacity="1"><g transform="translate(158.323069, 292.986806)"><g><path d="M 1.34375 -10.234375 L 5.546875 -10.234375 C 7.078125 -10.234375 8.34375 -9.75 9.34375 -8.78125 C 10.34375 -7.820312 10.84375 -6.597656 10.84375 -5.109375 C 10.84375 -3.628906 10.335938 -2.40625 9.328125 -1.4375 C 8.328125 -0.476562 7.050781 0 5.5 0 L 1.34375 0 Z M 3.078125 -8.6875 L 3.078125 -1.546875 L 5.59375 -1.546875 C 6.59375 -1.546875 7.425781 -1.878906 8.09375 -2.546875 C 8.757812 -3.210938 9.09375 -4.0625 9.09375 -5.09375 C 9.09375 -6.132812 8.75 -6.992188 8.0625 -7.671875 C 7.375 -8.347656 6.523438 -8.6875 5.515625 -8.6875 Z M 3.078125 -8.6875 "/></g></g></g><g fill="#ffffff" fill-opacity="1"><g transform="translate(175.306782, 292.986806)"><g><path d="M 7.953125 -2.3125 L 2.796875 -2.3125 L 1.8125 0 L 0.015625 0 L 4.53125 -10.234375 L 6.296875 -10.234375 L 10.78125 0 L 8.9375 0 Z M 7.296875 -3.84375 L 5.375 -8.390625 L 3.4375 -3.84375 Z M 7.296875 -3.84375 "/></g></g></g><g fill="#ffffff" fill-opacity="1"><g transform="translate(191.749808, 292.986806)"><g><path d="M 8.34375 -8.6875 L 5.09375 -8.6875 L 5.09375 0 L 3.359375 0 L 3.359375 -8.6875 L 0.125 -8.6875 L 0.125 -10.234375 L 8.34375 -10.234375 Z M 8.34375 -8.6875 "/></g></g></g><g fill="#ffffff" fill-opacity="1"><g transform="translate(205.869342, 292.986806)"><g><path d="M 7.953125 -2.3125 L 2.796875 -2.3125 L 1.8125 0 L 0.015625 0 L 4.53125 -10.234375 L 6.296875 -10.234375 L 10.78125 0 L 8.9375 0 Z M 7.296875 -3.84375 L 5.375 -8.390625 L 3.4375 -3.84375 Z M 7.296875 -3.84375 "/></g></g></g><g fill="#ffffff" fill-opacity="1"><g transform="translate(127.221508, 313.236805)"><g><path d="M 4.703125 -10.3125 C 6.035156 -10.3125 7.234375 -9.957031 8.296875 -9.25 L 7.578125 -7.734375 C 6.535156 -8.367188 5.535156 -8.6875 4.578125 -8.6875 C 4.054688 -8.6875 3.644531 -8.59375 3.34375 -8.40625 C 3.050781 -8.21875 2.90625 -7.953125 2.90625 -7.609375 C 2.90625 -7.273438 3.039062 -6.988281 3.3125 -6.75 C 3.59375 -6.507812 3.9375 -6.332031 4.34375 -6.21875 C 4.75 -6.113281 5.191406 -5.972656 5.671875 -5.796875 C 6.148438 -5.628906 6.59375 -5.445312 7 -5.25 C 7.414062 -5.0625 7.753906 -4.765625 8.015625 -4.359375 C 8.285156 -3.960938 8.421875 -3.472656 8.421875 -2.890625 C 8.421875 -1.992188 8.0625 -1.273438 7.34375 -0.734375 C 6.632812 -0.203125 5.707031 0.0625 4.5625 0.0625 C 3.78125 0.0625 3.023438 -0.0820312 2.296875 -0.375 C 1.566406 -0.664062 0.925781 -1.0625 0.375 -1.5625 L 1.125 -3.0625 C 1.644531 -2.582031 2.210938 -2.210938 2.828125 -1.953125 C 3.453125 -1.691406 4.039062 -1.5625 4.59375 -1.5625 C 5.195312 -1.5625 5.664062 -1.671875 6 -1.890625 C 6.34375 -2.109375 6.515625 -2.414062 6.515625 -2.8125 C 6.515625 -3.15625 6.375 -3.445312 6.09375 -3.6875 C 5.820312 -3.925781 5.476562 -4.101562 5.0625 -4.21875 C 4.65625 -4.332031 4.210938 -4.46875 3.734375 -4.625 C 3.265625 -4.789062 2.820312 -4.960938 2.40625 -5.140625 C 2 -5.316406 1.660156 -5.601562 1.390625 -6 C 1.117188 -6.40625 0.984375 -6.890625 0.984375 -7.453125 C 0.984375 -8.328125 1.320312 -9.019531 2 -9.53125 C 2.6875 -10.050781 3.585938 -10.3125 4.703125 -10.3125 Z M 4.703125 -10.3125 "/></g></g></g><g fill="#ffffff" fill-opacity="1"><g transform="translate(141.969401, 313.236805)"><g><path d="M 5.875 -10.28125 C 6.601562 -10.28125 7.3125 -10.140625 8 -9.859375 C 8.6875 -9.585938 9.273438 -9.203125 9.765625 -8.703125 L 8.765625 -7.4375 C 8.390625 -7.84375 7.945312 -8.160156 7.4375 -8.390625 C 6.9375 -8.628906 6.425781 -8.75 5.90625 -8.75 C 4.882812 -8.75 4.019531 -8.398438 3.3125 -7.703125 C 2.601562 -7.003906 2.25 -6.148438 2.25 -5.140625 C 2.25 -4.128906 2.601562 -3.273438 3.3125 -2.578125 C 4.019531 -1.878906 4.882812 -1.53125 5.90625 -1.53125 C 6.96875 -1.53125 7.921875 -1.9375 8.765625 -2.75 L 9.78125 -1.609375 C 9.257812 -1.085938 8.644531 -0.675781 7.9375 -0.375 C 7.238281 -0.0703125 6.535156 0.078125 5.828125 0.078125 C 4.316406 0.078125 3.050781 -0.421875 2.03125 -1.421875 C 1.007812 -2.421875 0.5 -3.660156 0.5 -5.140625 C 0.5 -6.585938 1.015625 -7.804688 2.046875 -8.796875 C 3.085938 -9.785156 4.363281 -10.28125 5.875 -10.28125 Z M 5.875 -10.28125 "/></g></g></g><g fill="#ffffff" fill-opacity="1"><g transform="translate(157.813295, 313.236805)"><g><path d="M 3.078125 0 L 1.34375 0 L 1.34375 -10.234375 L 3.078125 -10.234375 Z M 3.078125 0 "/></g></g></g><g fill="#ffffff" fill-opacity="1"><g transform="translate(167.884962, 313.236805)"><g><path d="M 8.65625 -8.6875 L 3.078125 -8.6875 L 3.078125 -5.921875 L 8.078125 -5.921875 L 8.078125 -4.375 L 3.078125 -4.375 L 3.078125 -1.546875 L 8.828125 -1.546875 L 8.828125 0 L 1.34375 0 L 1.34375 -10.234375 L 8.65625 -10.234375 Z M 8.65625 -8.6875 "/></g></g></g><g fill="#ffffff" fill-opacity="1"><g transform="translate(183.12971, 313.236805)"><g><path d="M 10.21875 0 L 8.53125 0 L 3.078125 -7.34375 L 3.078125 0 L 1.34375 0 L 1.34375 -10.234375 L 3.046875 -10.234375 L 8.53125 -2.875 L 8.53125 -10.234375 L 10.21875 -10.234375 Z M 10.21875 0 "/></g></g></g><g fill="#ffffff" fill-opacity="1"><g transform="translate(200.36185, 313.236805)"><g><path d="M 8.34375 -8.6875 L 5.09375 -8.6875 L 5.09375 0 L 3.359375 0 L 3.359375 -8.6875 L 0.125 -8.6875 L 0.125 -10.234375 L 8.34375 -10.234375 Z M 8.34375 -8.6875 "/></g></g></g><g fill="#ffffff" fill-opacity="1"><g transform="translate(214.481381, 313.236805)"><g><path d="M 3.078125 0 L 1.34375 0 L 1.34375 -10.234375 L 3.078125 -10.234375 Z M 3.078125 0 "/></g></g></g><g fill="#ffffff" fill-opacity="1"><g transform="translate(224.553045, 313.236805)"><g><path d="M 4.703125 -10.3125 C 6.035156 -10.3125 7.234375 -9.957031 8.296875 -9.25 L 7.578125 -7.734375 C 6.535156 -8.367188 5.535156 -8.6875 4.578125 -8.6875 C 4.054688 -8.6875 3.644531 -8.59375 3.34375 -8.40625 C 3.050781 -8.21875 2.90625 -7.953125 2.90625 -7.609375 C 2.90625 -7.273438 3.039062 -6.988281 3.3125 -6.75 C 3.59375 -6.507812 3.9375 -6.332031 4.34375 -6.21875 C 4.75 -6.113281 5.191406 -5.972656 5.671875 -5.796875 C 6.148438 -5.628906 6.59375 -5.445312 7 -5.25 C 7.414062 -5.0625 7.753906 -4.765625 8.015625 -4.359375 C 8.285156 -3.960938 8.421875 -3.472656 8.421875 -2.890625 C 8.421875 -1.992188 8.0625 -1.273438 7.34375 -0.734375 C 6.632812 -0.203125 5.707031 0.0625 4.5625 0.0625 C 3.78125 0.0625 3.023438 -0.0820312 2.296875 -0.375 C 1.566406 -0.664062 0.925781 -1.0625 0.375 -1.5625 L 1.125 -3.0625 C 1.644531 -2.582031 2.210938 -2.210938 2.828125 -1.953125 C 3.453125 -1.691406 4.039062 -1.5625 4.59375 -1.5625 C 5.195312 -1.5625 5.664062 -1.671875 6 -1.890625 C 6.34375 -2.109375 6.515625 -2.414062 6.515625 -2.8125 C 6.515625 -3.15625 6.375 -3.445312 6.09375 -3.6875 C 5.820312 -3.925781 5.476562 -4.101562 5.0625 -4.21875 C 4.65625 -4.332031 4.210938 -4.46875 3.734375 -4.625 C 3.265625 -4.789062 2.820312 -4.960938 2.40625 -5.140625 C 2 -5.316406 1.660156 -5.601562 1.390625 -6 C 1.117188 -6.40625 0.984375 -6.890625 0.984375 -7.453125 C 0.984375 -8.328125 1.320312 -9.019531 2 -9.53125 C 2.6875 -10.050781 3.585938 -10.3125 4.703125 -10.3125 Z M 4.703125 -10.3125 "/></g></g></g><g fill="#ffffff" fill-opacity="1"><g transform="translate(239.300942, 313.236805)"><g><path d="M 8.34375 -8.6875 L 5.09375 -8.6875 L 5.09375 0 L 3.359375 0 L 3.359375 -8.6875 L 0.125 -8.6875 L 0.125 -10.234375 L 8.34375 -10.234375 Z M 8.34375 -8.6875 "/></g></g></g></svg>