<svg xmlns="http://www.w3.org/2000/svg" xmlns:xlink="http://www.w3.org/1999/xlink" width="500" zoomAndPan="magnify" viewBox="0 0 375 374.999991" height="500" preserveAspectRatio="xMidYMid meet" version="1.0"><defs><clipPath id="c8590d950c"><path d="M 0 98 L 284 98 L 284 322.089844 L 0 322.089844 Z M 0 98 " clip-rule="nonzero"/></clipPath><clipPath id="a12aacc07e"><path d="M 189 52.839844 L 375 52.839844 L 375 175 L 189 175 Z M 189 52.839844 " clip-rule="nonzero"/></clipPath></defs><path fill="#00fffc" d="M 192.007812 166.835938 L 189.753906 129.0625 L 202.6875 118.570312 L 196.90625 147.714844 L 192.195312 167.675781 " fill-opacity="1" fill-rule="nonzero"/><g clip-path="url(#c8590d950c)"><path fill="#ffffff" d="M 262.984375 263.941406 C 263.003906 264.199219 263 264.453125 262.96875 264.707031 C 262.9375 264.960938 262.882812 265.207031 262.804688 265.449219 C 262.722656 265.691406 262.617188 265.925781 262.492188 266.148438 C 262.363281 266.367188 262.214844 266.574219 262.042969 266.765625 C 261.875 266.957031 261.6875 267.128906 261.484375 267.285156 C 261.28125 267.4375 261.0625 267.570312 260.832031 267.679688 C 260.601562 267.789062 260.359375 267.875 260.113281 267.933594 C 259.863281 267.996094 259.613281 268.03125 259.355469 268.042969 C 182.539062 268.042969 105.742188 268.042969 28.925781 268.207031 C 20.914062 268.207031 19.253906 264.660156 19.273438 257.570312 C 19.480469 214.898438 19.664062 172.226562 19.273438 129.554688 C 19.152344 119.410156 22.613281 116.847656 32.269531 116.929688 C 80.410156 117.339844 128.597656 117.15625 176.679688 117.03125 C 179.855469 117.03125 184.015625 116.785156 186.023438 114.878906 C 190.898438 109.800781 195.433594 104.4375 199.632812 98.792969 C 197.890625 98.648438 196.292969 98.421875 194.671875 98.421875 C 137.285156 98.421875 79.933594 98.421875 22.613281 98.421875 C 8.0625 98.421875 0.296875 106.621094 0.253906 121.625 C 0.117188 168.339844 0.0507812 215.09375 0.0507812 261.894531 C 0.0507812 262.707031 0.09375 263.523438 0.175781 264.335938 C 0.257812 265.144531 0.378906 265.953125 0.539062 266.75 C 0.699219 267.550781 0.898438 268.339844 1.136719 269.121094 C 1.375 269.902344 1.648438 270.667969 1.964844 271.421875 C 2.277344 272.175781 2.625 272.910156 3.011719 273.628906 C 3.394531 274.347656 3.816406 275.046875 4.269531 275.726562 C 4.722656 276.402344 5.207031 277.058594 5.726562 277.6875 C 6.242188 278.316406 6.789062 278.921875 7.367188 279.496094 C 7.945312 280.074219 8.546875 280.621094 9.179688 281.140625 C 9.808594 281.65625 10.460938 282.144531 11.140625 282.597656 C 11.820312 283.050781 12.515625 283.46875 13.234375 283.855469 C 13.953125 284.238281 14.691406 284.589844 15.445312 284.902344 C 16.199219 285.214844 16.964844 285.492188 17.746094 285.730469 C 18.523438 285.964844 19.316406 286.164062 20.113281 286.328125 C 20.914062 286.488281 21.71875 286.609375 22.53125 286.691406 C 23.34375 286.773438 24.15625 286.8125 24.972656 286.816406 C 49.566406 286.816406 74.160156 286.816406 98.753906 286.816406 L 116.402344 286.816406 C 116.402344 293.4375 116.402344 298.539062 116.402344 303.621094 C 116.402344 305.261719 115.992188 306.878906 115.644531 309.625 C 104.328125 309.625 94.101562 309.625 83.875 309.625 C 79.203125 309.625 73.875 308.519531 74.039062 316.246094 C 74.179688 323.523438 79.386719 322.007812 83.507812 322.007812 C 122.078125 322.089844 160.65625 322.089844 199.242188 322.007812 C 203.8125 322.007812 209.492188 323.316406 209.226562 315.550781 C 208.957031 307.78125 203.078125 309.730469 198.710938 309.625 C 188.300781 309.441406 177.867188 309.625 167.496094 309.625 L 167.496094 286.816406 L 179.21875 286.816406 C 206.191406 286.816406 233.164062 286.960938 260.136719 286.816406 C 275.589844 286.816406 283.191406 278.78125 283.417969 263.226562 C 283.417969 259.925781 283.417969 256.625 283.417969 252.671875 C 283.417969 252.46875 283.398438 252.269531 283.351562 252.070312 C 283.304688 251.875 283.238281 251.683594 283.148438 251.503906 C 283.054688 251.324219 282.945312 251.15625 282.816406 251 C 282.683594 250.847656 282.539062 250.707031 282.375 250.589844 C 282.210938 250.46875 282.039062 250.371094 281.851562 250.289062 C 281.664062 250.210938 281.472656 250.15625 281.273438 250.125 C 281.070312 250.089844 280.871094 250.082031 280.667969 250.097656 C 280.46875 250.109375 280.269531 250.148438 280.078125 250.210938 C 271.488281 252.894531 262.390625 253.203125 262.984375 263.941406 Z M 262.984375 263.941406 " fill-opacity="1" fill-rule="nonzero"/></g><g clip-path="url(#a12aacc07e)"><path fill="#00fffc" d="M 371.28125 75.121094 C 370.617188 73.976562 369.867188 72.890625 369.03125 71.863281 C 368.195312 70.839844 367.28125 69.886719 366.296875 69.003906 C 365.308594 68.125 364.257812 67.328125 363.144531 66.613281 C 362.03125 65.898438 360.867188 65.273438 359.65625 64.746094 C 358.445312 64.214844 357.195312 63.785156 355.917969 63.449219 C 354.636719 63.117188 353.335938 62.890625 352.019531 62.761719 C 350.703125 62.636719 349.382812 62.613281 348.0625 62.695312 C 346.742188 62.777344 345.4375 62.964844 344.144531 63.253906 C 342.8125 63.539062 341.507812 63.929688 340.242188 64.429688 C 338.972656 64.933594 337.753906 65.535156 336.582031 66.238281 C 335.414062 66.945312 334.3125 67.738281 333.277344 68.628906 C 332.242188 69.515625 331.285156 70.484375 330.410156 71.53125 C 329.535156 72.578125 328.75 73.6875 328.0625 74.867188 C 327.371094 76.042969 326.78125 77.269531 326.296875 78.542969 C 325.8125 79.816406 325.433594 81.125 325.164062 82.460938 C 324.894531 83.800781 324.738281 85.152344 324.695312 86.515625 C 324.550781 92.417969 321.804688 94.710938 317.296875 97.152344 C 301.90625 105.351562 286.738281 113.816406 271.429688 122.054688 C 253.105469 131.933594 234.722656 141.667969 216.355469 151.445312 C 211.582031 153.984375 207.320312 155.542969 206.109375 147.714844 C 202.832031 127.546875 205.472656 121.707031 222.9375 111.664062 C 229.085938 108.097656 235.519531 104.777344 241.503906 100.882812 C 246.996094 97.296875 251.160156 95.859375 257.902344 100.164062 C 270.382812 108.21875 286.800781 101.761719 292.742188 87.867188 C 293.078125 87.082031 293.371094 86.28125 293.621094 85.464844 C 293.871094 84.648438 294.082031 83.820312 294.25 82.984375 C 294.417969 82.144531 294.539062 81.300781 294.621094 80.449219 C 294.703125 79.601562 294.742188 78.75 294.734375 77.894531 C 294.730469 77.039062 294.679688 76.1875 294.585938 75.339844 C 294.496094 74.488281 294.359375 73.648438 294.179688 72.8125 C 294 71.976562 293.78125 71.152344 293.515625 70.339844 C 293.253906 69.527344 292.953125 68.730469 292.605469 67.949219 C 292.261719 67.167969 291.878906 66.40625 291.457031 65.664062 C 291.035156 64.917969 290.578125 64.199219 290.082031 63.503906 C 289.585938 62.808594 289.058594 62.140625 288.492188 61.5 C 287.929688 60.855469 287.335938 60.246094 286.707031 59.664062 C 286.082031 59.082031 285.429688 58.535156 284.746094 58.019531 C 284.066406 57.507812 283.359375 57.027344 282.628906 56.585938 C 281.898438 56.144531 281.144531 55.738281 280.375 55.375 C 279.601562 55.007812 278.8125 54.683594 278.007812 54.398438 C 263.84375 49.335938 246.710938 57.023438 245.214844 71.410156 C 244.046875 82.867188 237.753906 87.007812 229.371094 91.125 C 225.089844 93.175781 221.171875 96.210938 216.847656 98.09375 C 203.242188 103.957031 193.28125 111.847656 190.472656 123.835938 C 189.832031 126.949219 189.585938 130.089844 189.726562 133.265625 C 189.867188 136.4375 190.398438 139.546875 191.3125 142.589844 C 191.3125 148.390625 191.3125 154.191406 191.3125 159.992188 C 191.242188 163.171875 191.707031 166.273438 192.707031 169.296875 C 195.164062 175.875 201.046875 176.449219 210.660156 171.34375 C 248.1875 151.09375 285.773438 130.96875 323.160156 110.453125 C 328.527344 107.5 332.464844 107.257812 337.976562 110.308594 C 339.164062 110.996094 340.402344 111.574219 341.6875 112.046875 C 342.976562 112.519531 344.292969 112.878906 345.640625 113.125 C 346.992188 113.371094 348.351562 113.5 349.722656 113.511719 C 351.09375 113.523438 352.453125 113.417969 353.808594 113.195312 C 355.160156 112.972656 356.484375 112.636719 357.777344 112.1875 C 359.074219 111.738281 360.320312 111.179688 361.519531 110.515625 C 362.71875 109.847656 363.851562 109.085938 364.921875 108.226562 C 365.988281 107.367188 366.972656 106.421875 367.878906 105.390625 C 368.84375 104.414062 369.722656 103.367188 370.511719 102.242188 C 371.300781 101.121094 371.988281 99.941406 372.582031 98.703125 C 373.171875 97.464844 373.65625 96.1875 374.035156 94.867188 C 374.414062 93.550781 374.679688 92.207031 374.832031 90.84375 C 374.984375 89.480469 375.023438 88.117188 374.949219 86.746094 C 374.871094 85.375 374.683594 84.019531 374.382812 82.683594 C 374.078125 81.34375 373.667969 80.042969 373.148438 78.773438 C 372.628906 77.503906 372.003906 76.285156 371.28125 75.121094 Z M 269.195312 65.136719 C 270.054688 65.136719 270.910156 65.222656 271.753906 65.390625 C 272.597656 65.558594 273.417969 65.808594 274.214844 66.136719 C 275.007812 66.464844 275.765625 66.871094 276.480469 67.347656 C 277.199219 67.828125 277.859375 68.371094 278.46875 68.980469 C 279.078125 69.589844 279.621094 70.25 280.101562 70.96875 C 280.578125 71.683594 280.984375 72.441406 281.3125 73.234375 C 281.640625 74.03125 281.890625 74.851562 282.058594 75.695312 C 282.226562 76.539062 282.3125 77.394531 282.3125 78.253906 C 282.3125 79.117188 282.226562 79.96875 282.058594 80.8125 C 281.890625 81.660156 281.640625 82.480469 281.3125 83.273438 C 280.984375 84.070312 280.578125 84.828125 280.101562 85.542969 C 279.621094 86.257812 279.078125 86.921875 278.46875 87.53125 C 277.859375 88.140625 277.199219 88.683594 276.480469 89.160156 C 275.765625 89.640625 275.007812 90.042969 274.214844 90.375 C 273.417969 90.703125 272.597656 90.953125 271.753906 91.121094 C 270.910156 91.289062 270.054688 91.371094 269.195312 91.371094 C 268.332031 91.371094 267.480469 91.289062 266.636719 91.121094 C 265.789062 90.953125 264.96875 90.703125 264.175781 90.375 C 263.378906 90.042969 262.625 89.640625 261.90625 89.160156 C 261.191406 88.683594 260.527344 88.140625 259.917969 87.53125 C 259.308594 86.921875 258.765625 86.257812 258.289062 85.542969 C 257.808594 84.828125 257.40625 84.070312 257.074219 83.273438 C 256.746094 82.480469 256.496094 81.660156 256.328125 80.8125 C 256.160156 79.96875 256.078125 79.117188 256.078125 78.253906 C 256.078125 77.394531 256.160156 76.539062 256.328125 75.695312 C 256.496094 74.851562 256.746094 74.03125 257.074219 73.234375 C 257.40625 72.441406 257.808594 71.683594 258.289062 70.96875 C 258.765625 70.25 259.308594 69.589844 259.917969 68.980469 C 260.527344 68.371094 261.191406 67.828125 261.90625 67.347656 C 262.625 66.871094 263.378906 66.464844 264.175781 66.136719 C 264.96875 65.808594 265.789062 65.558594 266.636719 65.390625 C 267.480469 65.222656 268.332031 65.136719 269.195312 65.136719 Z M 349.636719 100.183594 C 348.777344 100.183594 347.925781 100.101562 347.078125 99.933594 C 346.234375 99.765625 345.414062 99.515625 344.617188 99.1875 C 343.824219 98.855469 343.066406 98.453125 342.351562 97.972656 C 341.636719 97.496094 340.972656 96.953125 340.363281 96.34375 C 339.753906 95.734375 339.210938 95.070312 338.730469 94.355469 C 338.253906 93.640625 337.847656 92.882812 337.519531 92.085938 C 337.191406 91.292969 336.941406 90.472656 336.773438 89.628906 C 336.605469 88.78125 336.523438 87.929688 336.523438 87.066406 C 336.523438 86.207031 336.605469 85.355469 336.773438 84.507812 C 336.941406 83.664062 337.191406 82.84375 337.519531 82.046875 C 337.847656 81.253906 338.253906 80.496094 338.730469 79.78125 C 339.210938 79.066406 339.753906 78.402344 340.363281 77.792969 C 340.972656 77.183594 341.636719 76.640625 342.351562 76.160156 C 343.066406 75.683594 343.824219 75.277344 344.617188 74.949219 C 345.414062 74.621094 346.234375 74.371094 347.078125 74.203125 C 347.925781 74.035156 348.777344 73.949219 349.636719 73.949219 C 350.5 73.949219 351.351562 74.035156 352.199219 74.203125 C 353.042969 74.371094 353.863281 74.621094 354.65625 74.949219 C 355.453125 75.277344 356.210938 75.683594 356.925781 76.160156 C 357.640625 76.640625 358.304688 77.183594 358.914062 77.792969 C 359.523438 78.402344 360.066406 79.066406 360.542969 79.78125 C 361.023438 80.496094 361.425781 81.253906 361.757812 82.046875 C 362.085938 82.84375 362.335938 83.664062 362.503906 84.507812 C 362.671875 85.355469 362.753906 86.207031 362.753906 87.066406 C 362.753906 87.929688 362.671875 88.78125 362.503906 89.628906 C 362.335938 90.472656 362.085938 91.292969 361.757812 92.085938 C 361.425781 92.882812 361.023438 93.640625 360.542969 94.355469 C 360.066406 95.070312 359.523438 95.734375 358.914062 96.34375 C 358.304688 96.953125 357.640625 97.496094 356.925781 97.972656 C 356.210938 98.453125 355.453125 98.855469 354.65625 99.1875 C 353.863281 99.515625 353.042969 99.765625 352.199219 99.933594 C 351.351562 100.101562 350.5 100.183594 349.636719 100.183594 Z M 349.636719 100.183594 " fill-opacity="1" fill-rule="nonzero"/></g><path fill="#5cb6f9" d="M 361.773438 145.625 C 361.269531 144.351562 360.671875 143.128906 359.976562 141.953125 C 359.285156 140.777344 358.503906 139.660156 357.632812 138.605469 C 356.765625 137.550781 355.820312 136.570312 354.796875 135.664062 C 353.773438 134.757812 352.6875 133.9375 351.539062 133.203125 C 350.386719 132.464844 349.1875 131.824219 347.933594 131.277344 C 346.683594 130.726562 345.394531 130.28125 344.074219 129.933594 C 342.753906 129.589844 341.414062 129.347656 340.054688 129.210938 C 338.695312 129.078125 337.332031 129.046875 335.96875 129.125 C 334.554688 129.207031 333.160156 129.40625 331.78125 129.730469 C 330.402344 130.050781 329.0625 130.492188 327.761719 131.042969 C 326.457031 131.597656 325.210938 132.257812 324.023438 133.027344 C 322.835938 133.796875 321.722656 134.664062 320.683594 135.625 C 319.644531 136.585938 318.695312 137.628906 317.835938 138.753906 C 316.976562 139.878906 316.21875 141.066406 315.566406 142.324219 C 314.914062 143.578125 314.371094 144.882812 313.941406 146.230469 C 313.515625 147.578125 313.203125 148.957031 313.011719 150.359375 C 312.089844 156.855469 309.097656 159.558594 303.789062 162.121094 C 277.652344 174.664062 251.609375 187.425781 225.664062 200.40625 C 215.414062 205.550781 214.65625 211.742188 223.613281 218.851562 C 234.066406 227.050781 245.070312 234.632812 255.339844 243.078125 C 261.773438 248.386719 267.863281 249.226562 274.972656 245.128906 C 280.875 241.765625 286.207031 240.90625 292.988281 244.863281 C 297.394531 247.421875 304.34375 247.503906 309.609375 246.296875 C 310.378906 246.109375 311.132812 245.882812 311.878906 245.625 C 312.625 245.363281 313.355469 245.070312 314.074219 244.738281 C 314.792969 244.410156 315.492188 244.046875 316.175781 243.652344 C 316.855469 243.253906 317.519531 242.824219 318.160156 242.367188 C 318.804688 241.90625 319.421875 241.417969 320.015625 240.898438 C 320.613281 240.378906 321.179688 239.832031 321.722656 239.261719 C 322.265625 238.6875 322.78125 238.089844 323.265625 237.46875 C 323.753906 236.84375 324.207031 236.203125 324.632812 235.535156 C 325.058594 234.871094 325.449219 234.1875 325.808594 233.484375 C 326.167969 232.78125 326.492188 232.0625 326.785156 231.328125 C 327.074219 230.59375 327.328125 229.847656 327.550781 229.089844 C 327.769531 228.332031 327.953125 227.5625 328.097656 226.789062 C 328.246094 226.011719 328.351562 225.230469 328.425781 224.445312 C 328.496094 223.65625 328.53125 222.871094 328.527344 222.082031 C 328.523438 221.289062 328.484375 220.503906 328.40625 219.71875 C 328.324219 218.933594 328.210938 218.152344 328.058594 217.378906 C 327.910156 216.625 327.730469 215.882812 327.519531 215.144531 C 327.304688 214.410156 327.058594 213.6875 326.78125 212.972656 C 326.5 212.261719 326.191406 211.5625 325.847656 210.875 C 325.507812 210.191406 325.132812 209.523438 324.730469 208.871094 C 324.328125 208.21875 323.898438 207.585938 323.4375 206.972656 C 322.980469 206.363281 322.492188 205.769531 321.980469 205.203125 C 321.464844 204.632812 320.929688 204.089844 320.367188 203.570312 C 319.804688 203.050781 319.21875 202.558594 318.613281 202.089844 C 318.003906 201.625 317.378906 201.183594 316.730469 200.773438 C 316.085938 200.363281 315.421875 199.984375 314.738281 199.632812 C 314.058594 199.285156 313.363281 198.964844 312.652344 198.675781 C 311.941406 198.390625 311.222656 198.136719 310.488281 197.914062 C 309.753906 197.691406 309.015625 197.503906 308.265625 197.347656 C 307.515625 197.195312 306.757812 197.074219 305.996094 196.988281 C 305.238281 196.898438 304.472656 196.847656 303.707031 196.832031 C 302.941406 196.8125 302.175781 196.832031 301.414062 196.882812 C 288.195312 197.621094 278.703125 207.457031 277.472656 221.679688 C 276.675781 230.964844 269.113281 234.757812 261.652344 229.367188 C 254.191406 223.976562 246.507812 217.953125 237.34375 210.921875 C 264.171875 197.679688 289.15625 185.199219 314.367188 173.210938 C 316.414062 172.207031 320.617188 173.96875 323.179688 175.484375 C 333.589844 181.632812 345.046875 181.449219 353.738281 174.277344 C 354.785156 173.457031 355.761719 172.558594 356.667969 171.585938 C 357.570312 170.613281 358.394531 169.570312 359.132812 168.46875 C 359.875 167.363281 360.523438 166.207031 361.078125 165 C 361.636719 163.792969 362.09375 162.546875 362.453125 161.265625 C 362.8125 159.988281 363.066406 158.6875 363.21875 157.363281 C 363.371094 156.042969 363.417969 154.71875 363.363281 153.390625 C 363.304688 152.0625 363.140625 150.746094 362.875 149.445312 C 362.609375 148.140625 362.242188 146.867188 361.773438 145.625 Z M 303.523438 209.855469 C 304.386719 209.855469 305.242188 209.9375 306.089844 210.105469 C 306.9375 210.273438 307.757812 210.519531 308.554688 210.847656 C 309.355469 211.179688 310.113281 211.582031 310.832031 212.0625 C 311.550781 212.539062 312.214844 213.085938 312.824219 213.695312 C 313.4375 214.304688 313.980469 214.96875 314.460938 215.683594 C 314.941406 216.402344 315.347656 217.160156 315.679688 217.957031 C 316.007812 218.753906 316.257812 219.574219 316.429688 220.421875 C 316.597656 221.269531 316.683594 222.121094 316.683594 222.984375 C 316.683594 223.847656 316.597656 224.703125 316.429688 225.550781 C 316.261719 226.398438 316.011719 227.21875 315.683594 228.015625 C 315.351562 228.816406 314.949219 229.574219 314.46875 230.289062 C 313.988281 231.007812 313.445312 231.671875 312.835938 232.28125 C 312.222656 232.894531 311.558594 233.4375 310.84375 233.917969 C 310.125 234.398438 309.367188 234.800781 308.570312 235.132812 C 307.769531 235.460938 306.949219 235.710938 306.101562 235.878906 C 305.257812 236.046875 304.402344 236.132812 303.539062 236.128906 C 302.675781 236.128906 301.820312 236.046875 300.972656 235.875 C 300.125 235.707031 299.304688 235.457031 298.507812 235.125 C 297.710938 234.796875 296.953125 234.390625 296.234375 233.910156 C 295.519531 233.429688 294.855469 232.882812 294.246094 232.273438 C 293.636719 231.660156 293.089844 230.996094 292.613281 230.277344 C 292.132812 229.5625 291.730469 228.804688 291.402344 228.003906 C 291.070312 227.207031 290.824219 226.382812 290.65625 225.539062 C 290.488281 224.691406 290.40625 223.835938 290.40625 222.972656 C 290.410156 222.113281 290.492188 221.257812 290.664062 220.414062 C 290.832031 219.570312 291.082031 218.75 291.410156 217.957031 C 291.742188 217.160156 292.144531 216.40625 292.625 215.691406 C 293.101562 214.972656 293.644531 214.3125 294.253906 213.703125 C 294.863281 213.09375 295.527344 212.550781 296.242188 212.074219 C 296.957031 211.59375 297.710938 211.191406 298.507812 210.859375 C 299.300781 210.53125 300.121094 210.28125 300.964844 210.109375 C 301.8125 209.941406 302.664062 209.855469 303.523438 209.855469 Z M 338.367188 166.691406 C 337.503906 166.691406 336.652344 166.609375 335.808594 166.441406 C 334.960938 166.273438 334.140625 166.023438 333.347656 165.695312 C 332.550781 165.363281 331.792969 164.960938 331.078125 164.480469 C 330.363281 164.003906 329.699219 163.460938 329.089844 162.851562 C 328.480469 162.242188 327.9375 161.578125 327.460938 160.863281 C 326.980469 160.148438 326.578125 159.390625 326.246094 158.59375 C 325.917969 157.800781 325.667969 156.980469 325.5 156.132812 C 325.332031 155.289062 325.25 154.4375 325.25 153.574219 C 325.25 152.714844 325.332031 151.859375 325.5 151.015625 C 325.667969 150.171875 325.917969 149.351562 326.246094 148.554688 C 326.578125 147.761719 326.980469 147.003906 327.460938 146.289062 C 327.9375 145.570312 328.480469 144.910156 329.089844 144.300781 C 329.699219 143.691406 330.363281 143.148438 331.078125 142.667969 C 331.792969 142.191406 332.550781 141.785156 333.347656 141.457031 C 334.140625 141.128906 334.960938 140.878906 335.808594 140.710938 C 336.652344 140.542969 337.503906 140.457031 338.367188 140.457031 C 339.226562 140.457031 340.082031 140.542969 340.925781 140.710938 C 341.769531 140.878906 342.589844 141.128906 343.386719 141.457031 C 344.179688 141.785156 344.9375 142.191406 345.652344 142.667969 C 346.371094 143.148438 347.03125 143.691406 347.640625 144.300781 C 348.25 144.910156 348.792969 145.570312 349.273438 146.289062 C 349.75 147.003906 350.15625 147.761719 350.484375 148.554688 C 350.8125 149.351562 351.0625 150.171875 351.230469 151.015625 C 351.398438 151.859375 351.484375 152.714844 351.484375 153.574219 C 351.480469 154.441406 351.394531 155.300781 351.222656 156.152344 C 351.054688 157 350.800781 157.824219 350.464844 158.625 C 350.132812 159.425781 349.722656 160.183594 349.238281 160.902344 C 348.75 161.621094 348.199219 162.285156 347.585938 162.894531 C 346.96875 163.503906 346.296875 164.046875 345.574219 164.527344 C 344.851562 165.003906 344.085938 165.402344 343.28125 165.730469 C 342.480469 166.054688 341.652344 166.300781 340.800781 166.460938 C 339.949219 166.625 339.089844 166.699219 338.222656 166.691406 Z M 338.367188 166.691406 " fill-opacity="1" fill-rule="nonzero"/></svg>